<svg width="54" height="52" viewBox="0 0 54 52" fill="none" xmlns="http://www.w3.org/2000/svg">
<g clip-path="url(#clip0_11_16)">
<path d="M51 46H3C1.35 46 0 47.35 0 49C0 50.65 1.35 52 3 52H51C52.65 52 54 50.65 54 49C54 47.35 52.65 46 51 46Z" fill="white"/>
<path d="M51 23H3C1.35 23 0 24.35 0 26C0 27.65 1.35 29 3 29H51C52.65 29 54 27.65 54 26C54 24.35 52.65 23 51 23Z" fill="white"/>
<path d="M51 0H3C1.35 0 0 1.35 0 3C0 4.65 1.35 6 3 6H51C52.65 6 54 4.65 54 3C54 1.35 52.65 0 51 0Z" fill="white"/>
</g>
<defs>
<clipPath id="clip0_11_16">
<rect width="54" height="52" fill="white"/>
</clipPath>
</defs>
</svg>
