<svg width="43" height="43" viewBox="0 0 43 43" fill="none" xmlns="http://www.w3.org/2000/svg">
<g clip-path="url(#clip0_4_90)">
<path d="M23.6791 31.8257C23.6791 32.2563 23.5514 32.6772 23.3122 33.0352C23.073 33.3932 22.733 33.6723 22.3353 33.837C21.9375 34.0018 21.4998 34.0449 21.0775 33.9609C20.6553 33.8769 20.2674 33.6696 19.9629 33.3651C19.6585 33.0606 19.4512 32.6727 19.3672 32.2504C19.2832 31.8281 19.3263 31.3904 19.4911 30.9926C19.6558 30.5947 19.9348 30.2547 20.2928 30.0155C20.6508 29.7763 21.0717 29.6486 21.5022 29.6486C21.7881 29.6486 22.0711 29.7049 22.3353 29.8143C22.5994 29.9237 22.8393 30.0841 23.0415 30.2863C23.2436 30.4884 23.404 30.7284 23.5134 30.9926C23.6228 31.2567 23.6791 31.5398 23.6791 31.8257ZM15.8265 16.0882C16.0826 16.2119 16.3605 16.284 16.6444 16.3002C16.9283 16.3165 17.2126 16.2766 17.4811 16.1828C17.7496 16.0891 17.9969 15.9434 18.209 15.754C18.4211 15.5645 18.5938 15.3352 18.7173 15.0789C18.965 14.5565 19.3546 14.1142 19.8415 13.8025C20.3285 13.4909 20.8932 13.3223 21.4714 13.3161C22.2749 13.3263 23.0444 13.6424 23.6231 14.1999C24.2019 14.7575 24.5465 15.5146 24.5868 16.3173C24.6076 16.9784 24.4154 17.6287 24.0385 18.1723C23.6617 18.7159 23.1201 19.1239 22.4937 19.3361C21.5837 19.6338 20.7898 20.2092 20.2239 20.9816C19.6579 21.7539 19.3483 22.6843 19.3386 23.6418V25.3694C19.3386 25.9438 19.5668 26.4948 19.9729 26.901C20.3791 27.3072 20.93 27.5354 21.5044 27.5354C22.0788 27.5354 22.6297 27.3072 23.0359 26.901C23.4421 26.4948 23.6702 25.9438 23.6702 25.3694V23.6418C23.6702 23.514 23.8862 23.4391 23.8862 23.4391C25.3893 22.9343 26.69 21.9588 27.5955 20.6571C28.5011 19.3554 28.9634 17.7966 28.9141 16.2116C28.8428 14.2867 28.033 12.4633 26.6528 11.1199C25.2726 9.77647 23.4281 9.01631 21.5022 8.99724H21.4581C20.073 9.00513 18.7182 9.40335 17.5491 10.1462C16.38 10.8891 15.4439 11.9465 14.8483 13.1971C14.7245 13.4532 14.6525 13.7311 14.6363 14.0151C14.62 14.299 14.6599 14.5834 14.7536 14.8519C14.8473 15.1204 14.9931 15.3678 15.1824 15.5799C15.3718 15.792 15.6012 15.9647 15.8574 16.0882H15.8265ZM0.438782 32.3942V10.6102C0.442282 7.91289 1.51553 5.32711 3.42304 3.42023C5.33055 1.51335 7.91652 0.441106 10.6136 0.438774H32.3909C35.0871 0.442272 37.672 1.51503 39.5785 3.42178C41.4851 5.32854 42.5577 7.91365 42.5612 10.6102V32.3898C42.5577 35.0863 41.4851 37.6715 39.5785 39.5782C37.672 41.485 35.0871 42.5577 32.3909 42.5612H10.6136C7.91729 42.5577 5.33244 41.485 3.42589 39.5782C1.51933 37.6715 0.446686 35.0863 0.443188 32.3898L0.438782 32.3942ZM4.55452 32.3942C4.55686 33.9998 5.19625 35.5388 6.33229 36.6733C7.46832 37.8078 9.00813 38.4451 10.6136 38.445H32.3909C33.9963 38.4439 35.5356 37.8055 36.6708 36.6702C37.8061 35.5349 38.4443 33.9954 38.4455 32.3898V10.6102C38.4443 9.00461 37.8061 7.46511 36.6708 6.32978C35.5356 5.19445 33.9963 4.55611 32.3909 4.55495H10.6136C9.00813 4.55611 7.46879 5.19445 6.33358 6.32978C5.19837 7.46511 4.5601 9.00461 4.55893 10.6102L4.55452 32.3942Z" fill="white"/>
</g>
<defs>
<clipPath id="clip0_4_90">
<rect width="43" height="43" fill="white"/>
</clipPath>
</defs>
</svg>
