<svg width="43" height="43" viewBox="0 0 43 43" fill="none" xmlns="http://www.w3.org/2000/svg">
<path d="M11.18 41.538H31.691C37.109 41.538 41.581 37.109 41.581 31.648V11.18C41.581 5.76199 37.152 1.28999 31.691 1.28999H11.18C5.76198 1.28999 1.28998 5.71899 1.28998 11.18V31.691C1.28998 37.109 5.71898 41.538 11.18 41.538ZM21.027 8.85799C22.704 8.85799 24.037 10.191 24.037 11.868C24.037 13.545 22.704 14.878 21.027 14.878C19.35 14.878 18.017 13.545 18.017 11.868C18.017 10.234 19.35 8.85799 21.027 8.85799ZM17.243 29.498H18.748V21.328H17.243V17.286H18.748H23.263H23.994V29.498H25.499V33.54H23.994H18.791H17.286V29.498H17.243Z" fill="white"/>
</svg>
