<svg width="43" height="41" viewBox="0 0 43 41" fill="none" xmlns="http://www.w3.org/2000/svg">
<g clip-path="url(#clip0_4_47)">
<path d="M40.0233 12.4464H27.6598C27.045 12.4464 26.4554 12.6778 26.0206 13.0897C25.5859 13.5017 25.3417 14.0603 25.3417 14.6429C25.3417 15.2254 25.5859 15.7841 26.0206 16.196C26.4554 16.6079 27.045 16.8393 27.6598 16.8393H40.0233C40.6381 16.8393 41.2278 16.6079 41.6625 16.196C42.0972 15.7841 42.3415 15.2254 42.3415 14.6429C42.3415 14.0603 42.0972 13.5017 41.6625 13.0897C41.2278 12.6778 40.6381 12.4464 40.0233 12.4464Z" fill="white"/>
<path d="M40.0233 24.1607H27.6598C27.045 24.1607 26.4554 24.3921 26.0206 24.804C25.5859 25.2159 25.3417 25.7746 25.3417 26.3571C25.3417 26.9397 25.5859 27.4983 26.0206 27.9103C26.4554 28.3222 27.045 28.5536 27.6598 28.5536H40.0233C40.6381 28.5536 41.2278 28.3222 41.6625 27.9103C42.0972 27.4983 42.3415 26.9397 42.3415 26.3571C42.3415 25.7746 42.0972 25.2159 41.6625 24.804C41.2278 24.3921 40.6381 24.1607 40.0233 24.1607Z" fill="white"/>
<path d="M40.0233 35.875H2.93284C2.31803 35.875 1.72839 36.1064 1.29366 36.5183C0.858918 36.9302 0.614685 37.4889 0.614685 38.0714C0.614685 38.654 0.858918 39.2126 1.29366 39.6245C1.72839 40.0365 2.31803 40.2679 2.93284 40.2679H40.0233C40.6381 40.2679 41.2277 40.0365 41.6625 39.6245C42.0972 39.2126 42.3415 38.654 42.3415 38.0714C42.3415 37.4889 42.0972 36.9302 41.6625 36.5183C41.2277 36.1064 40.6381 35.875 40.0233 35.875Z" fill="white"/>
<path d="M40.0233 0.732147H2.93284C2.31803 0.732147 1.72839 0.963556 1.29366 1.37547C0.858918 1.78738 0.614685 2.34605 0.614685 2.92858C0.614685 3.5111 0.858918 4.06978 1.29366 4.48169C1.72839 4.8936 2.31803 5.125 2.93284 5.125H40.0233C40.6381 5.125 41.2277 4.8936 41.6625 4.48169C42.0972 4.06978 42.3415 3.5111 42.3415 2.92858C42.3415 2.34605 42.0972 1.78738 41.6625 1.37547C41.2277 0.963556 40.6381 0.732147 40.0233 0.732147Z" fill="white"/>
<path d="M17.6145 17.5714C17.6145 16.2122 17.0446 14.9086 16.0302 13.9475C15.0158 12.9864 13.64 12.4464 12.2055 12.4464H6.02371C4.58915 12.4464 3.21334 12.9864 2.19895 13.9475C1.18456 14.9086 0.614685 16.2122 0.614685 17.5714V23.4286C0.614685 24.7878 1.18456 26.0914 2.19895 27.0525C3.21334 28.0136 4.58915 28.5536 6.02371 28.5536H12.2055C13.64 28.5536 15.0158 28.0136 16.0302 27.0525C17.0446 26.0914 17.6145 24.7878 17.6145 23.4286V17.5714ZM12.2055 24.1607H6.02371C5.81877 24.1607 5.62223 24.0836 5.47732 23.9463C5.3324 23.809 5.25099 23.6227 5.25099 23.4286V17.5714C5.25099 17.3773 5.3324 17.191 5.47732 17.0537C5.62223 16.9164 5.81877 16.8393 6.02371 16.8393H12.2055C12.4104 16.8393 12.6069 16.9164 12.7518 17.0537C12.8968 17.191 12.9782 17.3773 12.9782 17.5714V23.4286C12.9782 23.6227 12.8968 23.809 12.7518 23.9463C12.6069 24.0836 12.4104 24.1607 12.2055 24.1607Z" fill="white"/>
</g>
<defs>
<clipPath id="clip0_4_47">
<rect width="43" height="41" fill="white"/>
</clipPath>
</defs>
</svg>
