<svg width="43" height="43" viewBox="0 0 43 43" fill="none" xmlns="http://www.w3.org/2000/svg">
<path d="M41.5782 34.9548L40.0316 20.0227C39.8235 18.0184 38.8526 16.2082 37.299 14.9252L36.7858 14.5021L37.1811 13.975C38.2631 12.5255 38.8318 10.8124 38.8318 9.01613C38.8318 4.42484 35.1005 0.69355 30.5092 0.69355C27.2356 0.69355 24.1424 2.13613 22.0201 4.65371L21.4931 5.28484L20.966 4.65371C18.8437 2.13613 15.7505 0.69355 12.4769 0.69355C7.88563 0.69355 4.15434 4.42484 4.15434 9.01613C4.15434 10.8124 4.72999 12.5255 5.81192 13.975L6.20725 14.5021L5.70096 14.9252C4.14047 16.2152 3.17644 18.0323 2.97531 20.0436L1.41483 35.6553C1.39402 35.8565 1.38708 36.0576 1.38708 36.2587C1.38708 39.5947 4.09886 42.3065 7.42789 42.3065H35.5651C38.9011 42.3065 41.6129 39.5947 41.6129 36.2587V35.5721C41.6129 35.364 41.606 35.1629 41.5782 34.9479V34.9548ZM19.4193 38.1452H7.42789C6.38757 38.1452 5.54838 37.299 5.54838 36.2587C5.54838 36.1963 5.54838 36.1339 5.55531 36.0715L7.11579 20.4597C7.29612 18.6773 8.78031 17.3387 10.5697 17.3387H19.4193V38.1452ZM19.4193 13.1774H12.4839C10.1882 13.1774 8.32257 11.3118 8.32257 9.01613C8.32257 6.72049 10.1882 4.85484 12.4839 4.85484C16.3053 4.85484 19.4193 7.96887 19.4193 11.7903V13.1774ZM23.5806 11.7903C23.5806 7.96887 26.6947 4.85484 30.5161 4.85484C32.8118 4.85484 34.6774 6.72049 34.6774 9.01613C34.6774 11.3118 32.8118 13.1774 30.5161 13.1774H23.5806V11.7903ZM37.4516 36.2587C37.4516 37.299 36.6055 38.1452 35.5651 38.1452H23.5806V17.3387H32.4442C34.2266 17.3387 35.7108 18.6773 35.8911 20.4527L37.4377 35.3779C37.4377 35.4473 37.4447 35.5097 37.4447 35.579V36.2656L37.4516 36.2587Z" fill="white"/>
</svg>
